<svg height="512pt" viewBox="-56 0 512 512.00013" width="512pt" xmlns="http://www.w3.org/2000/svg"><path d="m392.480469 312.011719c0 106.308593-86.179688 192.488281-192.492188 192.488281-106.308593 0-192.488281-86.179688-192.488281-192.488281 0-163.855469 192.488281-304.511719 192.488281-304.511719s192.492188 140.65625 192.492188 304.511719zm0 0" fill="#40c1fa"/><path d="m199.988281 7.5s-.953125.699219-2.730469 2.054688c56.296876 50.9375 153.214844 155.523437 153.214844 271.792968 0 106.308594-86.179687 192.492188-192.492187 192.492188-33.050781 0-64.152344-8.335938-91.328125-23.011719 34.59375 33.238281 81.578125 53.671875 133.335937 53.671875 106.3125 0 192.492188-86.179688 192.492188-192.488281 0-163.855469-192.492188-304.511719-192.492188-304.511719zm0 0" fill="#07a9f0"/><path d="m261.449219 161.640625h-83.191407l-66.316406 121.371094 75.320313-.117188-45.066407 108.464844 148.84375-147.953125h-83.960937zm0 0" fill="#ffd508"/><path d="m342.804688 356.820312c2.527343-6.886718 4.695312-13.996093 6.441406-21.128906.984375-4.019531-1.476563-8.082031-5.5-9.066406-4.023438-.984375-8.082032 1.476562-9.066406 5.5-1.617188 6.589844-3.621094 13.164062-5.957032 19.53125-1.425781 3.886719.570313 8.195312 4.460938 9.621094 3.894531 1.433594 8.199218-.578125 9.621094-4.457032zm0 0"/><path d="m276.558594 446.761719c24.425781-18.722657 44.488281-43.175781 58.023437-70.714844 1.828125-3.71875.296875-8.210937-3.421875-10.039063-3.71875-1.828124-8.210937-.292968-10.039062 3.421876-12.523438 25.480468-31.085938 48.105468-53.6875 65.429687-3.289063 2.519531-3.910156 7.226563-1.390625 10.515625 2.519531 3.285156 7.226562 3.90625 10.515625 1.386719zm0 0"/><path d="m147.480469 396.679688 148.847656-147.953126c4.726563-4.699218 1.40625-12.820312-5.285156-12.820312h-69.96875l46.621093-70.113281c3.308594-4.972657-.261718-11.652344-6.246093-11.652344h-83.1875c-2.746094 0-5.269531 1.496094-6.582031 3.90625l-21.011719 38.449219c-1.988281 3.636718-.652344 8.191406 2.984375 10.179687 3.632812 1.984375 8.191406.648438 10.175781-2.988281l18.878906-34.546875h64.746094l-46.621094 70.113281c-1.53125 2.304688-1.671875 5.261719-.363281 7.695313 1.304688 2.4375 3.84375 3.957031 6.609375 3.957031h65.777344l-109.339844 108.683594 30.671875-73.816406c.960938-2.316407.703125-4.960938-.691406-7.046876-1.390625-2.082031-3.730469-3.332031-6.234375-3.332031-.003907 0-.007813 0-.011719 0l-62.65625.097657 25.441406-46.558594c1.984375-3.632813.648438-8.191406-2.984375-10.175782-3.636719-1.988281-8.191406-.652343-10.179687 2.984376l-31.511719 57.671874c-2.722656 4.976563.871094 11.09375 6.582031 11.09375h.007813l64.066406-.09375-40.746094 98.066407c-3.167969 7.621093 6.492188 13.882812 12.210938 8.199219zm0 0"/><path d="m359.449219 173.816406c-2.042969-3.605468-6.621094-4.871094-10.222657-2.828125-3.601562 2.039063-4.871093 6.617188-2.828124 10.222657 25.601562 45.175781 38.582031 89.183593 38.582031 130.800781 0 102-82.988281 184.988281-184.992188 184.988281-102.003906 0-184.988281-82.988281-184.988281-184.988281 0-36.15625 9.828125-74.246094 29.210938-113.207031 15.652343-31.460938 37.519531-63.542969 65-95.347657 38.695312-44.796875 77.859374-76.515625 90.777343-86.535156 17.503907 13.585937 83.21875 67.066406 131.167969 139.484375 2.289062 3.453125 6.941406 4.398438 10.394531 2.113281 3.457031-2.289062 4.398438-6.941406 2.113281-10.394531-56.972656-86.042969-135.914062-144.246094-139.25-146.679688-2.636718-1.925781-6.214843-1.925781-8.847656 0-1.996094 1.457032-49.367187 36.308594-97.496094 91.957032-28.347656 32.785156-50.960937 65.941406-67.207031 98.558594-20.480469 41.113281-30.863281 81.503906-30.863281 120.050781 0 110.273437 89.714844 199.988281 199.988281 199.988281 110.277344 0 199.992188-89.714844 199.992188-199.988281 0-44.242188-13.636719-90.738281-40.53125-138.195313zm0 0"/></svg>